<?xml version="1.0" encoding="UTF-8" standalone="no"?>
<!DOCTYPE svg PUBLIC "-//W3C//DTD SVG 1.1//EN"
 "http://www.w3.org/Graphics/SVG/1.1/DTD/svg11.dtd">
<!-- Generated by graphviz version 2.50.0 (0)
 -->
<!-- Pages: 1 -->
<svg width="448pt" height="456pt"
 viewBox="0.00 0.00 448.31 455.62" xmlns="http://www.w3.org/2000/svg" xmlns:xlink="http://www.w3.org/1999/xlink">
<g id="graph0" class="graph" transform="scale(1 1) rotate(0) translate(4 451.62)">
<polygon fill="white" stroke="transparent" points="-4,4 -4,-451.62 444.31,-451.62 444.31,4 -4,4"/>
<text text-anchor="middle" x="220.16" y="-7.8" font-family="Times,serif" font-size="14.00">The Circle of Fifths and 12 tone equal temperament</text>
<!-- c -->
<g id="node1" class="node">
<title>c</title>
<path fill="none" stroke="black" d="M288.44,-379.69C288.44,-379.69 327.44,-379.69 327.44,-379.69 333.44,-379.69 339.44,-385.69 339.44,-391.69 339.44,-391.69 339.44,-413.69 339.44,-413.69 339.44,-419.69 333.44,-425.69 327.44,-425.69 327.44,-425.69 288.44,-425.69 288.44,-425.69 282.44,-425.69 276.44,-419.69 276.44,-413.69 276.44,-413.69 276.44,-391.69 276.44,-391.69 276.44,-385.69 282.44,-379.69 288.44,-379.69"/>
<text text-anchor="start" x="304.44" y="-411.49" font-family="Times,serif" font-weight="bold" font-size="14.00">c</text>
<polyline fill="none" stroke="black" points="276.44,-402.69 339.44,-402.69 "/>
<text text-anchor="start" x="284.44" y="-387.49" font-family="Times,serif" font-size="14.00">261.6Hz</text>
</g>
<!-- g -->
<g id="node2" class="node">
<title>g</title>
<path fill="none" stroke="black" d="M193.07,-401.12C193.07,-401.12 232.07,-401.12 232.07,-401.12 238.07,-401.12 244.07,-407.12 244.07,-413.12 244.07,-413.12 244.07,-435.12 244.07,-435.12 244.07,-441.12 238.07,-447.12 232.07,-447.12 232.07,-447.12 193.07,-447.12 193.07,-447.12 187.07,-447.12 181.07,-441.12 181.07,-435.12 181.07,-435.12 181.07,-413.12 181.07,-413.12 181.07,-407.12 187.07,-401.12 193.07,-401.12"/>
<text text-anchor="start" x="209.07" y="-432.92" font-family="Times,serif" font-weight="bold" font-size="14.00">g</text>
<polyline fill="none" stroke="black" points="181.07,-424.12 244.07,-424.12 "/>
<text text-anchor="start" x="189.07" y="-408.92" font-family="Times,serif" font-size="14.00">392.0Hz</text>
</g>
<!-- c&#45;&gt;g -->
<g id="edge1" class="edge">
<title>c&#45;&gt;g</title>
<path fill="none" stroke="black" d="M276.18,-409.83C269.1,-411.42 261.5,-413.13 254.09,-414.79"/>
<polygon fill="black" stroke="black" points="253.18,-411.41 244.19,-417.02 254.71,-418.24 253.18,-411.41"/>
</g>
<!-- d -->
<g id="node5" class="node">
<title>d</title>
<path fill="none" stroke="black" d="M99.79,-371.93C99.79,-371.93 138.79,-371.93 138.79,-371.93 144.79,-371.93 150.79,-377.93 150.79,-383.93 150.79,-383.93 150.79,-405.93 150.79,-405.93 150.79,-411.93 144.79,-417.93 138.79,-417.93 138.79,-417.93 99.79,-417.93 99.79,-417.93 93.79,-417.93 87.79,-411.93 87.79,-405.93 87.79,-405.93 87.79,-383.93 87.79,-383.93 87.79,-377.93 93.79,-371.93 99.79,-371.93"/>
<text text-anchor="start" x="115.29" y="-403.73" font-family="Times,serif" font-weight="bold" font-size="14.00">d</text>
<polyline fill="none" stroke="black" points="87.79,-394.93 150.79,-394.93 "/>
<text text-anchor="start" x="95.79" y="-379.73" font-family="Times,serif" font-size="14.00">293.7Hz</text>
</g>
<!-- g&#45;&gt;d -->
<g id="edge8" class="edge">
<title>g&#45;&gt;d</title>
<path fill="none" stroke="black" d="M180.99,-414.24C174.45,-412.19 167.48,-410.01 160.65,-407.88"/>
<polygon fill="black" stroke="black" points="161.42,-404.45 150.84,-404.8 159.33,-411.13 161.42,-404.45"/>
</g>
<!-- c♯ -->
<g id="node3" class="node">
<title>c♯</title>
<path fill="none" stroke="black" d="M208.03,-23.5C208.03,-23.5 247.03,-23.5 247.03,-23.5 253.03,-23.5 259.03,-29.5 259.03,-35.5 259.03,-35.5 259.03,-57.5 259.03,-57.5 259.03,-63.5 253.03,-69.5 247.03,-69.5 247.03,-69.5 208.03,-69.5 208.03,-69.5 202.03,-69.5 196.03,-63.5 196.03,-57.5 196.03,-57.5 196.03,-35.5 196.03,-35.5 196.03,-29.5 202.03,-23.5 208.03,-23.5"/>
<text text-anchor="start" x="221.03" y="-55.3" font-family="Times,serif" font-weight="bold" font-size="14.00">c♯</text>
<polyline fill="none" stroke="black" points="196.03,-46.5 259.03,-46.5 "/>
<text text-anchor="start" x="204.03" y="-31.3" font-family="Times,serif" font-size="14.00">277.2Hz</text>
</g>
<!-- g♯ -->
<g id="node4" class="node">
<title>g♯</title>
<path fill="none" stroke="black" d="M301.41,-52.47C301.41,-52.47 340.41,-52.47 340.41,-52.47 346.41,-52.47 352.41,-58.47 352.41,-64.47 352.41,-64.47 352.41,-86.47 352.41,-86.47 352.41,-92.47 346.41,-98.47 340.41,-98.47 340.41,-98.47 301.41,-98.47 301.41,-98.47 295.41,-98.47 289.41,-92.47 289.41,-86.47 289.41,-86.47 289.41,-64.47 289.41,-64.47 289.41,-58.47 295.41,-52.47 301.41,-52.47"/>
<text text-anchor="start" x="313.91" y="-84.27" font-family="Times,serif" font-weight="bold" font-size="14.00">g♯</text>
<polyline fill="none" stroke="black" points="289.41,-75.47 352.41,-75.47 "/>
<text text-anchor="start" x="297.41" y="-60.27" font-family="Times,serif" font-size="14.00">415.3Hz</text>
</g>
<!-- c♯&#45;&gt;g♯ -->
<g id="edge2" class="edge">
<title>c♯&#45;&gt;g♯</title>
<path fill="none" stroke="black" d="M259.15,-56.31C265.69,-58.34 272.67,-60.5 279.5,-62.62"/>
<polygon fill="black" stroke="black" points="278.74,-66.05 289.33,-65.67 280.82,-59.37 278.74,-66.05"/>
</g>
<!-- d♯ -->
<g id="node7" class="node">
<title>d♯</title>
<path fill="none" stroke="black" d="M366.99,-124.9C366.99,-124.9 405.99,-124.9 405.99,-124.9 411.99,-124.9 417.99,-130.9 417.99,-136.9 417.99,-136.9 417.99,-158.9 417.99,-158.9 417.99,-164.9 411.99,-170.9 405.99,-170.9 405.99,-170.9 366.99,-170.9 366.99,-170.9 360.99,-170.9 354.99,-164.9 354.99,-158.9 354.99,-158.9 354.99,-136.9 354.99,-136.9 354.99,-130.9 360.99,-124.9 366.99,-124.9"/>
<text text-anchor="start" x="378.99" y="-156.7" font-family="Times,serif" font-weight="bold" font-size="14.00">d♯</text>
<polyline fill="none" stroke="black" points="354.99,-147.9 417.99,-147.9 "/>
<text text-anchor="start" x="362.99" y="-132.7" font-family="Times,serif" font-size="14.00">311.1Hz</text>
</g>
<!-- g♯&#45;&gt;d♯ -->
<g id="edge9" class="edge">
<title>g♯&#45;&gt;d♯</title>
<path fill="none" stroke="black" d="M342.02,-98.79C347.29,-104.6 353.01,-110.93 358.55,-117.05"/>
<polygon fill="black" stroke="black" points="356.11,-119.57 365.42,-124.63 361.3,-114.87 356.11,-119.57"/>
</g>
<!-- a -->
<g id="node6" class="node">
<title>a</title>
<path fill="none" stroke="black" d="M33.58,-300.04C33.58,-300.04 72.58,-300.04 72.58,-300.04 78.58,-300.04 84.58,-306.04 84.58,-312.04 84.58,-312.04 84.58,-334.04 84.58,-334.04 84.58,-340.04 78.58,-346.04 72.58,-346.04 72.58,-346.04 33.58,-346.04 33.58,-346.04 27.58,-346.04 21.58,-340.04 21.58,-334.04 21.58,-334.04 21.58,-312.04 21.58,-312.04 21.58,-306.04 27.58,-300.04 33.58,-300.04"/>
<text text-anchor="start" x="49.58" y="-331.84" font-family="Times,serif" font-weight="bold" font-size="14.00">a</text>
<polyline fill="none" stroke="black" points="21.58,-323.04 84.58,-323.04 "/>
<text text-anchor="start" x="29.58" y="-307.84" font-family="Times,serif" font-size="14.00">440.0Hz</text>
</g>
<!-- d&#45;&gt;a -->
<g id="edge3" class="edge">
<title>d&#45;&gt;a</title>
<path fill="none" stroke="black" d="M97.97,-371.79C92.66,-366.01 86.87,-359.73 81.28,-353.66"/>
<polygon fill="black" stroke="black" points="83.7,-351.12 74.35,-346.14 78.55,-355.86 83.7,-351.12"/>
</g>
<!-- e -->
<g id="node9" class="node">
<title>e</title>
<path fill="none" stroke="black" d="M12,-204.71C12,-204.71 51,-204.71 51,-204.71 57,-204.71 63,-210.71 63,-216.71 63,-216.71 63,-238.71 63,-238.71 63,-244.71 57,-250.71 51,-250.71 51,-250.71 12,-250.71 12,-250.71 6,-250.71 0,-244.71 0,-238.71 0,-238.71 0,-216.71 0,-216.71 0,-210.71 6,-204.71 12,-204.71"/>
<text text-anchor="start" x="28" y="-236.51" font-family="Times,serif" font-weight="bold" font-size="14.00">e</text>
<polyline fill="none" stroke="black" points="0,-227.71 63,-227.71 "/>
<text text-anchor="start" x="8" y="-212.51" font-family="Times,serif" font-size="14.00">329.6Hz</text>
</g>
<!-- a&#45;&gt;e -->
<g id="edge10" class="edge">
<title>a&#45;&gt;e</title>
<path fill="none" stroke="black" d="M47.85,-299.96C45.2,-288.22 41.92,-273.74 39,-260.84"/>
<polygon fill="black" stroke="black" points="42.37,-259.89 36.75,-250.9 35.54,-261.43 42.37,-259.89"/>
</g>
<!-- a♯ -->
<g id="node8" class="node">
<title>a♯</title>
<path fill="none" stroke="black" d="M389.31,-220.03C389.31,-220.03 428.31,-220.03 428.31,-220.03 434.31,-220.03 440.31,-226.03 440.31,-232.03 440.31,-232.03 440.31,-254.03 440.31,-254.03 440.31,-260.03 434.31,-266.03 428.31,-266.03 428.31,-266.03 389.31,-266.03 389.31,-266.03 383.31,-266.03 377.31,-260.03 377.31,-254.03 377.31,-254.03 377.31,-232.03 377.31,-232.03 377.31,-226.03 383.31,-220.03 389.31,-220.03"/>
<text text-anchor="start" x="401.81" y="-251.83" font-family="Times,serif" font-weight="bold" font-size="14.00">a♯</text>
<polyline fill="none" stroke="black" points="377.31,-243.03 440.31,-243.03 "/>
<text text-anchor="start" x="385.31" y="-227.83" font-family="Times,serif" font-size="14.00">466.2Hz</text>
</g>
<!-- d♯&#45;&gt;a♯ -->
<g id="edge4" class="edge">
<title>d♯&#45;&gt;a♯</title>
<path fill="none" stroke="black" d="M391.89,-170.93C394.64,-182.65 398.03,-197.09 401.05,-209.97"/>
<polygon fill="black" stroke="black" points="397.69,-210.95 403.38,-219.88 404.5,-209.35 397.69,-210.95"/>
</g>
<!-- f -->
<g id="node11" class="node">
<title>f</title>
<path fill="none" stroke="black" d="M360.27,-313.38C360.27,-313.38 399.27,-313.38 399.27,-313.38 405.27,-313.38 411.27,-319.38 411.27,-325.38 411.27,-325.38 411.27,-347.38 411.27,-347.38 411.27,-353.38 405.27,-359.38 399.27,-359.38 399.27,-359.38 360.27,-359.38 360.27,-359.38 354.27,-359.38 348.27,-353.38 348.27,-347.38 348.27,-347.38 348.27,-325.38 348.27,-325.38 348.27,-319.38 354.27,-313.38 360.27,-313.38"/>
<text text-anchor="start" x="377.27" y="-345.18" font-family="Times,serif" font-weight="bold" font-size="14.00">f</text>
<polyline fill="none" stroke="black" points="348.27,-336.38 411.27,-336.38 "/>
<text text-anchor="start" x="356.27" y="-321.18" font-family="Times,serif" font-size="14.00">349.2Hz</text>
</g>
<!-- a♯&#45;&gt;f -->
<g id="edge11" class="edge">
<title>a♯&#45;&gt;f</title>
<path fill="none" stroke="black" d="M401.63,-266.11C398.11,-277.44 393.8,-291.29 389.94,-303.69"/>
<polygon fill="black" stroke="black" points="386.59,-302.66 386.97,-313.25 393.28,-304.74 386.59,-302.66"/>
</g>
<!-- b -->
<g id="node10" class="node">
<title>b</title>
<path fill="none" stroke="black" d="M40.91,-111.34C40.91,-111.34 79.91,-111.34 79.91,-111.34 85.91,-111.34 91.91,-117.34 91.91,-123.34 91.91,-123.34 91.91,-145.34 91.91,-145.34 91.91,-151.34 85.91,-157.34 79.91,-157.34 79.91,-157.34 40.91,-157.34 40.91,-157.34 34.91,-157.34 28.91,-151.34 28.91,-145.34 28.91,-145.34 28.91,-123.34 28.91,-123.34 28.91,-117.34 34.91,-111.34 40.91,-111.34"/>
<text text-anchor="start" x="56.41" y="-143.14" font-family="Times,serif" font-weight="bold" font-size="14.00">b</text>
<polyline fill="none" stroke="black" points="28.91,-134.34 91.91,-134.34 "/>
<text text-anchor="start" x="36.91" y="-119.14" font-family="Times,serif" font-size="14.00">493.9Hz</text>
</g>
<!-- e&#45;&gt;b -->
<g id="edge5" class="edge">
<title>e&#45;&gt;b</title>
<path fill="none" stroke="black" d="M38.65,-204.63C42.16,-193.3 46.45,-179.44 50.29,-167.04"/>
<polygon fill="black" stroke="black" points="53.63,-168.07 53.25,-157.48 46.94,-166 53.63,-168.07"/>
</g>
<!-- f♯ -->
<g id="node12" class="node">
<title>f♯</title>
<path fill="none" stroke="black" d="M112.67,-44.98C112.67,-44.98 151.67,-44.98 151.67,-44.98 157.67,-44.98 163.67,-50.98 163.67,-56.98 163.67,-56.98 163.67,-78.98 163.67,-78.98 163.67,-84.98 157.67,-90.98 151.67,-90.98 151.67,-90.98 112.67,-90.98 112.67,-90.98 106.67,-90.98 100.67,-84.98 100.67,-78.98 100.67,-78.98 100.67,-56.98 100.67,-56.98 100.67,-50.98 106.67,-44.98 112.67,-44.98"/>
<text text-anchor="start" x="126.17" y="-76.78" font-family="Times,serif" font-weight="bold" font-size="14.00">f♯</text>
<polyline fill="none" stroke="black" points="100.67,-67.98 163.67,-67.98 "/>
<text text-anchor="start" x="108.67" y="-52.78" font-family="Times,serif" font-size="14.00">370.0Hz</text>
</g>
<!-- b&#45;&gt;f♯ -->
<g id="edge12" class="edge">
<title>b&#45;&gt;f♯</title>
<path fill="none" stroke="black" d="M85.51,-111.13C89.96,-107.01 94.66,-102.67 99.29,-98.39"/>
<polygon fill="black" stroke="black" points="102,-100.65 106.97,-91.29 97.25,-95.51 102,-100.65"/>
</g>
<!-- f&#45;&gt;c -->
<g id="edge6" class="edge">
<title>f&#45;&gt;c</title>
<path fill="none" stroke="black" d="M354.65,-359.58C350.19,-363.69 345.49,-368.03 340.85,-372.31"/>
<polygon fill="black" stroke="black" points="338.14,-370.05 333.17,-379.4 342.89,-375.19 338.14,-370.05"/>
</g>
<!-- f♯&#45;&gt;c♯ -->
<g id="edge7" class="edge">
<title>f♯&#45;&gt;c♯</title>
<path fill="none" stroke="black" d="M163.93,-60.83C171,-59.23 178.61,-57.52 186.01,-55.85"/>
<polygon fill="black" stroke="black" points="186.93,-59.23 195.92,-53.62 185.39,-52.4 186.93,-59.23"/>
</g>
</g>
</svg>
