<?xml version="1.0" encoding="UTF-8" standalone="no"?>
<!DOCTYPE svg PUBLIC "-//W3C//DTD SVG 1.1//EN"
 "http://www.w3.org/Graphics/SVG/1.1/DTD/svg11.dtd">
<!-- Generated by graphviz version 2.50.0 (0)
 -->
<!-- Pages: 1 -->
<svg width="201pt" height="256pt"
 viewBox="0.00 0.00 200.84 256.43" xmlns="http://www.w3.org/2000/svg" xmlns:xlink="http://www.w3.org/1999/xlink">
<g id="graph0" class="graph" transform="scale(1 1) rotate(0) translate(4 252.43)">
<polygon fill="white" stroke="transparent" points="-4,4 -4,-252.43 196.84,-252.43 196.84,4 -4,4"/>
<!-- North -->
<g id="node1" class="node">
<title>North</title>
<path fill="#6e8b3d" stroke="black" d="M176.65,-211.98C176.65,-211.98 176.65,-218.88 176.65,-218.88 176.65,-222.33 173.39,-226.92 170.13,-228.05 170.13,-228.05 140.99,-238.16 140.99,-238.16 137.73,-239.3 131.02,-240.43 127.57,-240.43 127.57,-240.43 81.73,-240.43 81.73,-240.43 78.28,-240.43 71.56,-239.3 68.3,-238.16 68.3,-238.16 39.17,-228.05 39.17,-228.05 35.91,-226.92 32.65,-222.33 32.65,-218.88 32.65,-218.88 32.65,-211.98 32.65,-211.98 32.65,-208.53 35.91,-203.94 39.17,-202.81 39.17,-202.81 68.3,-192.69 68.3,-192.69 71.56,-191.56 78.28,-190.43 81.73,-190.43 81.73,-190.43 127.57,-190.43 127.57,-190.43 131.02,-190.43 137.73,-191.56 140.99,-192.69 140.99,-192.69 170.13,-202.81 170.13,-202.81 173.39,-203.94 176.65,-208.53 176.65,-211.98"/>
<path fill="none" stroke="black" d="M180.65,-211.03C180.65,-211.03 180.65,-219.83 180.65,-219.83 180.65,-224.23 176.49,-230.07 172.33,-231.52 172.33,-231.52 143.46,-241.54 143.46,-241.54 139.3,-242.99 130.74,-244.43 126.34,-244.43 126.34,-244.43 82.95,-244.43 82.95,-244.43 78.55,-244.43 69.99,-242.99 65.84,-241.54 65.84,-241.54 36.96,-231.52 36.96,-231.52 32.8,-230.07 28.65,-224.23 28.65,-219.83 28.65,-219.83 28.65,-211.03 28.65,-211.03 28.65,-206.63 32.8,-200.79 36.96,-199.34 36.96,-199.34 65.84,-189.32 65.84,-189.32 69.99,-187.87 78.55,-186.43 82.95,-186.43 82.95,-186.43 126.34,-186.43 126.34,-186.43 130.74,-186.43 139.3,-187.87 143.46,-189.32 143.46,-189.32 172.33,-199.34 172.33,-199.34 176.49,-200.79 180.65,-206.63 180.65,-211.03"/>
<path fill="none" stroke="black" d="M184.65,-210.08C184.65,-210.08 184.65,-220.78 184.65,-220.78 184.65,-226.13 179.59,-233.23 174.54,-234.98 174.54,-234.98 145.93,-244.92 145.93,-244.92 140.87,-246.67 130.47,-248.43 125.12,-248.43 125.12,-248.43 84.17,-248.43 84.17,-248.43 78.82,-248.43 68.42,-246.67 63.37,-244.92 63.37,-244.92 34.75,-234.98 34.75,-234.98 29.7,-233.23 24.65,-226.13 24.65,-220.78 24.65,-220.78 24.65,-210.08 24.65,-210.08 24.65,-204.73 29.7,-197.63 34.75,-195.87 34.75,-195.87 63.37,-185.94 63.37,-185.94 68.42,-184.18 78.82,-182.43 84.17,-182.43 84.17,-182.43 125.12,-182.43 125.12,-182.43 130.47,-182.43 140.87,-184.18 145.93,-185.94 145.93,-185.94 174.54,-195.87 174.54,-195.87 179.59,-197.63 184.65,-204.73 184.65,-210.08"/>
<text text-anchor="middle" x="104.65" y="-211.73" font-family="Times,serif" font-size="14.00" fill="white">Altstadt</text>
</g>
<!-- Center -->
<g id="node3" class="node">
<title>Center</title>
<path fill="#6e8b3d" stroke="black" d="M103.54,-121.73C103.54,-121.73 103.54,-126.7 103.54,-126.7 103.54,-129.19 101.21,-132.55 98.89,-133.43 98.89,-133.43 80.25,-140.46 80.25,-140.46 77.92,-141.34 73.11,-142.21 70.62,-142.21 70.62,-142.21 41.05,-142.21 41.05,-142.21 38.57,-142.21 33.75,-141.34 31.43,-140.46 31.43,-140.46 12.79,-133.43 12.79,-133.43 10.46,-132.55 8.14,-129.19 8.14,-126.7 8.14,-126.7 8.14,-121.73 8.14,-121.73 8.14,-119.24 10.46,-115.88 12.79,-115 12.79,-115 31.43,-107.97 31.43,-107.97 33.75,-107.09 38.57,-106.21 41.05,-106.21 41.05,-106.21 70.62,-106.21 70.62,-106.21 73.11,-106.21 77.92,-107.09 80.25,-107.97 80.25,-107.97 98.89,-115 98.89,-115 101.21,-115.88 103.54,-119.24 103.54,-121.73"/>
<path fill="none" stroke="black" d="M107.52,-120.81C107.52,-120.81 107.52,-127.62 107.52,-127.62 107.52,-131.03 104.34,-135.64 101.15,-136.85 101.15,-136.85 82.7,-143.81 82.7,-143.81 79.51,-145.01 72.91,-146.21 69.5,-146.21 69.5,-146.21 42.17,-146.21 42.17,-146.21 38.76,-146.21 32.17,-145.01 28.98,-143.81 28.98,-143.81 10.53,-136.85 10.53,-136.85 7.34,-135.64 4.15,-131.03 4.15,-127.62 4.15,-127.62 4.15,-120.81 4.15,-120.81 4.15,-117.4 7.34,-112.79 10.53,-111.58 10.53,-111.58 28.98,-104.62 28.98,-104.62 32.17,-103.42 38.76,-102.21 42.17,-102.21 42.17,-102.21 69.5,-102.21 69.5,-102.21 72.91,-102.21 79.51,-103.42 82.7,-104.62 82.7,-104.62 101.15,-111.58 101.15,-111.58 104.34,-112.79 107.52,-117.4 107.52,-120.81"/>
<path fill="none" stroke="black" d="M111.51,-119.88C111.51,-119.88 111.51,-128.55 111.51,-128.55 111.51,-132.88 107.46,-138.74 103.41,-140.27 103.41,-140.27 85.15,-147.16 85.15,-147.16 81.1,-148.69 72.71,-150.21 68.38,-150.21 68.38,-150.21 43.29,-150.21 43.29,-150.21 38.96,-150.21 30.58,-148.69 26.52,-147.16 26.52,-147.16 8.27,-140.27 8.27,-140.27 4.21,-138.74 0.16,-132.88 0.16,-128.55 0.16,-128.55 0.16,-119.88 0.16,-119.88 0.16,-115.55 4.21,-109.69 8.27,-108.16 8.27,-108.16 26.52,-101.27 26.52,-101.27 30.58,-99.74 38.96,-98.21 43.29,-98.21 43.29,-98.21 68.38,-98.21 68.38,-98.21 72.71,-98.21 81.1,-99.74 85.15,-101.27 85.15,-101.27 103.41,-108.16 103.41,-108.16 107.46,-109.69 111.51,-115.55 111.51,-119.88"/>
<text text-anchor="middle" x="55.84" y="-120.51" font-family="Times,serif" font-size="14.00" fill="white">Kneiphof</text>
</g>
<!-- North&#45;&#45;Center -->
<g id="edge5" class="edge">
<title>North&#45;&#45;Center</title>
<path fill="none" stroke="black" stroke-width="3" d="M94.17,-182.29C89.1,-171.79 82.95,-160.33 77.03,-150.38"/>
</g>
<!-- South -->
<g id="node2" class="node">
<title>South</title>
<path fill="#6e8b3d" stroke="black" d="M176.65,-29.55C176.65,-29.55 176.65,-36.45 176.65,-36.45 176.65,-39.9 173.39,-44.49 170.13,-45.62 170.13,-45.62 140.99,-55.74 140.99,-55.74 137.73,-56.87 131.02,-58 127.57,-58 127.57,-58 81.73,-58 81.73,-58 78.28,-58 71.56,-56.87 68.3,-55.74 68.3,-55.74 39.17,-45.62 39.17,-45.62 35.91,-44.49 32.65,-39.9 32.65,-36.45 32.65,-36.45 32.65,-29.55 32.65,-29.55 32.65,-26.1 35.91,-21.51 39.17,-20.38 39.17,-20.38 68.3,-10.26 68.3,-10.26 71.56,-9.13 78.28,-8 81.73,-8 81.73,-8 127.57,-8 127.57,-8 131.02,-8 137.73,-9.13 140.99,-10.26 140.99,-10.26 170.13,-20.38 170.13,-20.38 173.39,-21.51 176.65,-26.1 176.65,-29.55"/>
<path fill="none" stroke="black" d="M180.65,-28.6C180.65,-28.6 180.65,-37.4 180.65,-37.4 180.65,-41.8 176.49,-47.64 172.33,-49.09 172.33,-49.09 143.46,-59.11 143.46,-59.11 139.3,-60.56 130.74,-62 126.34,-62 126.34,-62 82.95,-62 82.95,-62 78.55,-62 69.99,-60.56 65.84,-59.11 65.84,-59.11 36.96,-49.09 36.96,-49.09 32.8,-47.64 28.65,-41.8 28.65,-37.4 28.65,-37.4 28.65,-28.6 28.65,-28.6 28.65,-24.2 32.8,-18.36 36.96,-16.91 36.96,-16.91 65.84,-6.89 65.84,-6.89 69.99,-5.44 78.55,-4 82.95,-4 82.95,-4 126.34,-4 126.34,-4 130.74,-4 139.3,-5.44 143.46,-6.89 143.46,-6.89 172.33,-16.91 172.33,-16.91 176.49,-18.36 180.65,-24.2 180.65,-28.6"/>
<path fill="none" stroke="black" d="M184.65,-27.65C184.65,-27.65 184.65,-38.35 184.65,-38.35 184.65,-43.7 179.59,-50.8 174.54,-52.55 174.54,-52.55 145.93,-62.49 145.93,-62.49 140.87,-64.25 130.47,-66 125.12,-66 125.12,-66 84.17,-66 84.17,-66 78.82,-66 68.42,-64.25 63.37,-62.49 63.37,-62.49 34.75,-52.55 34.75,-52.55 29.7,-50.8 24.65,-43.7 24.65,-38.35 24.65,-38.35 24.65,-27.65 24.65,-27.65 24.65,-22.3 29.7,-15.2 34.75,-13.45 34.75,-13.45 63.37,-3.51 63.37,-3.51 68.42,-1.75 78.82,0 84.17,0 84.17,0 125.12,0 125.12,0 130.47,0 140.87,-1.75 145.93,-3.51 145.93,-3.51 174.54,-13.45 174.54,-13.45 179.59,-15.2 184.65,-22.3 184.65,-27.65"/>
<text text-anchor="middle" x="104.65" y="-29.3" font-family="Times,serif" font-size="14.00" fill="white">Vorstadt</text>
</g>
<!-- South&#45;&#45;Center -->
<g id="edge2" class="edge">
<title>South&#45;&#45;Center</title>
<path fill="none" stroke="black" stroke-width="3" d="M79.38,-66.19C73.43,-76.68 67.55,-88.12 63.06,-98.05"/>
</g>
<!-- Center&#45;&#45;North -->
<g id="edge3" class="edge">
<title>Center&#45;&#45;North</title>
<path fill="none" stroke="black" stroke-width="3" d="M63.13,-150.53C67.64,-160.48 73.51,-171.91 79.46,-182.39"/>
</g>
<!-- Center&#45;&#45;South -->
<g id="edge6" class="edge">
<title>Center&#45;&#45;South</title>
<path fill="none" stroke="black" stroke-width="3" d="M77.15,-97.85C83.01,-87.99 89.08,-76.67 94.1,-66.27"/>
</g>
<!-- East -->
<g id="node4" class="node">
<title>East</title>
<path fill="#6e8b3d" stroke="black" d="M184.71,-117.78C184.71,-117.78 184.71,-130.64 184.71,-130.64 184.71,-134.89 181.96,-142.35 179.21,-145.58 179.21,-145.58 172.23,-153.76 172.23,-153.76 169.47,-156.99 162.48,-160.21 158.24,-160.21 158.24,-160.21 149.76,-160.21 149.76,-160.21 145.52,-160.21 138.52,-156.99 135.77,-153.76 135.77,-153.76 128.79,-145.58 128.79,-145.58 126.04,-142.35 123.29,-134.89 123.29,-130.64 123.29,-130.64 123.29,-117.78 123.29,-117.78 123.29,-113.54 126.04,-106.08 128.79,-102.85 128.79,-102.85 135.77,-94.67 135.77,-94.67 138.52,-91.44 145.52,-88.21 149.76,-88.21 149.76,-88.21 158.24,-88.21 158.24,-88.21 162.48,-88.21 169.47,-91.44 172.23,-94.67 172.23,-94.67 179.21,-102.85 179.21,-102.85 181.96,-106.08 184.71,-113.54 184.71,-117.78"/>
<path fill="none" stroke="black" d="M188.7,-117.53C188.7,-117.53 188.7,-130.9 188.7,-130.9 188.7,-135.75 185.55,-144.3 182.4,-147.99 182.4,-147.99 174.85,-156.83 174.85,-156.83 171.7,-160.52 163.7,-164.21 158.85,-164.21 158.85,-164.21 149.15,-164.21 149.15,-164.21 144.3,-164.21 136.3,-160.52 133.15,-156.83 133.15,-156.83 125.6,-147.99 125.6,-147.99 122.45,-144.3 119.3,-135.75 119.3,-130.9 119.3,-130.9 119.3,-117.53 119.3,-117.53 119.3,-112.68 122.45,-104.13 125.6,-100.44 125.6,-100.44 133.15,-91.6 133.15,-91.6 136.3,-87.91 144.3,-84.21 149.15,-84.21 149.15,-84.21 158.85,-84.21 158.85,-84.21 163.7,-84.21 171.7,-87.91 174.85,-91.6 174.85,-91.6 182.4,-100.44 182.4,-100.44 185.55,-104.13 188.7,-112.68 188.7,-117.53"/>
<path fill="none" stroke="black" d="M192.68,-117.27C192.68,-117.27 192.68,-131.16 192.68,-131.16 192.68,-136.62 189.14,-146.24 185.59,-150.4 185.59,-150.4 177.48,-159.9 177.48,-159.9 173.93,-164.06 164.92,-168.21 159.46,-168.21 159.46,-168.21 148.54,-168.21 148.54,-168.21 143.07,-168.21 134.07,-164.06 130.52,-159.9 130.52,-159.9 122.41,-150.4 122.41,-150.4 118.86,-146.24 115.32,-136.62 115.32,-131.16 115.32,-131.16 115.32,-117.27 115.32,-117.27 115.32,-111.81 118.86,-102.19 122.41,-98.03 122.41,-98.03 130.52,-88.53 130.52,-88.53 134.07,-84.37 143.07,-80.21 148.54,-80.21 148.54,-80.21 159.46,-80.21 159.46,-80.21 164.92,-80.21 173.93,-84.37 177.48,-88.53 177.48,-88.53 185.59,-98.03 185.59,-98.03 189.14,-102.19 192.68,-111.81 192.68,-117.27"/>
<text text-anchor="middle" x="154" y="-120.51" font-family="Times,serif" font-size="14.00" fill="white">Lomse</text>
</g>
<!-- Center&#45;&#45;East -->
<g id="edge7" class="edge">
<title>Center&#45;&#45;East</title>
<path fill="none" stroke="black" stroke-width="3" d="M111.52,-124.21C112.73,-124.21 113.93,-124.21 115.13,-124.21"/>
</g>
<!-- East&#45;&#45;North -->
<g id="edge4" class="edge">
<title>East&#45;&#45;North</title>
<path fill="none" stroke="black" stroke-width="3" d="M133.07,-162.9C129.6,-169.31 126.03,-175.9 122.65,-182.16"/>
</g>
<!-- East&#45;&#45;South -->
<g id="edge1" class="edge">
<title>East&#45;&#45;South</title>
<path fill="none" stroke="black" stroke-width="3" d="M133.07,-85.53C129.6,-79.12 126.03,-72.53 122.65,-66.27"/>
</g>
</g>
</svg>
