<?xml version="1.0" encoding="UTF-8" standalone="no"?>
<!DOCTYPE svg PUBLIC "-//W3C//DTD SVG 1.1//EN"
 "http://www.w3.org/Graphics/SVG/1.1/DTD/svg11.dtd">
<!-- Generated by graphviz version 2.50.0 (0)
 -->
<!-- Pages: 1 -->
<svg width="193pt" height="44pt"
 viewBox="0.00 0.00 193.00 44.00" xmlns="http://www.w3.org/2000/svg" xmlns:xlink="http://www.w3.org/1999/xlink">
<g id="graph0" class="graph" transform="scale(1 1) rotate(0) translate(4 40)">
<polygon fill="beige" stroke="transparent" points="-4,4 -4,-40 189,-40 189,4 -4,4"/>
<!-- start -->
<g id="node1" class="node">
<title>start</title>
<path fill="red" stroke="black" stroke-width="0.5" d="M18,-18C18,-18 36,-18 36,-18 36,-18.79 35.95,-19.57 35.85,-20.35 35.74,-21.13 35.59,-21.9 35.39,-22.66 35.18,-23.42 34.93,-24.16 34.63,-24.89 34.33,-25.61 33.98,-26.32 33.59,-27 33.2,-27.68 32.76,-28.33 32.28,-28.96 31.8,-29.58 31.28,-30.17 30.73,-30.73 30.17,-31.28 29.58,-31.8 28.96,-32.28 28.33,-32.76 27.68,-33.2 27,-33.59 26.32,-33.98 25.61,-34.33 24.89,-34.63 24.16,-34.93 23.42,-35.18 22.66,-35.39 21.9,-35.59 21.13,-35.74 20.35,-35.85 19.57,-35.95 18.79,-36 18,-36 17.21,-36 16.43,-35.95 15.65,-35.85 14.87,-35.74 14.1,-35.59 13.34,-35.39 12.58,-35.18 11.84,-34.93 11.11,-34.63 10.39,-34.33 9.68,-33.98 9,-33.59 9,-33.59 18,-18 18,-18"/>
<path fill="green" stroke="black" stroke-width="0.5" d="M18,-18C18,-18 9,-33.59 9,-33.59 8.32,-33.2 7.67,-32.76 7.04,-32.28 6.42,-31.8 5.83,-31.28 5.27,-30.73 4.72,-30.17 4.2,-29.58 3.72,-28.96 3.24,-28.33 2.8,-27.68 2.41,-27 2.02,-26.32 1.67,-25.61 1.37,-24.89 1.07,-24.16 0.82,-23.42 0.61,-22.66 0.41,-21.9 0.26,-21.13 0.15,-20.35 0.05,-19.57 0,-18.79 0,-18 0,-17.21 0.05,-16.43 0.15,-15.65 0.26,-14.87 0.41,-14.1 0.61,-13.34 0.82,-12.58 1.07,-11.84 1.37,-11.11 1.67,-10.39 2.02,-9.68 2.41,-9 2.8,-8.32 3.24,-7.67 3.72,-7.04 4.2,-6.42 4.72,-5.83 5.27,-5.27 5.83,-4.72 6.42,-4.2 7.04,-3.72 7.67,-3.24 8.32,-2.8 9,-2.41 9,-2.41 18,-18 18,-18"/>
<path fill="blue" stroke="black" stroke-width="0.5" d="M18,-18C18,-18 9,-2.41 9,-2.41 9.68,-2.02 10.39,-1.67 11.11,-1.37 11.84,-1.07 12.58,-0.82 13.34,-0.61 14.1,-0.41 14.87,-0.26 15.65,-0.15 16.43,-0.05 17.21,0 18,0 18.79,0 19.57,-0.05 20.35,-0.15 21.13,-0.26 21.9,-0.41 22.66,-0.61 23.42,-0.82 24.16,-1.07 24.89,-1.37 25.61,-1.67 26.32,-2.02 27,-2.41 27.68,-2.8 28.33,-3.24 28.96,-3.72 29.58,-4.2 30.17,-4.72 30.73,-5.27 31.28,-5.83 31.8,-6.42 32.28,-7.04 32.76,-7.67 33.2,-8.32 33.59,-9 33.98,-9.68 34.33,-10.39 34.63,-11.11 34.93,-11.84 35.18,-12.58 35.39,-13.34 35.59,-14.1 35.74,-14.87 35.85,-15.65 35.95,-16.43 36,-17.21 36,-18 36,-18 18,-18 18,-18"/>
<ellipse fill="none" stroke="black" cx="18" cy="-18" rx="18" ry="18"/>
</g>
<!-- end -->
<g id="node2" class="node">
<title>end</title>
<path fill="cyan" stroke="black" stroke-width="0.5" d="M167,-18C167,-18 185,-18 185,-18 185,-18.79 184.95,-19.57 184.85,-20.35 184.74,-21.13 184.59,-21.9 184.39,-22.66 184.18,-23.42 183.93,-24.16 183.63,-24.89 183.33,-25.61 182.98,-26.32 182.59,-27 182.2,-27.68 181.76,-28.33 181.28,-28.96 180.8,-29.58 180.28,-30.17 179.73,-30.73 179.17,-31.28 178.58,-31.8 177.96,-32.28 177.33,-32.76 176.68,-33.2 176,-33.59 175.32,-33.98 174.61,-34.33 173.89,-34.63 173.16,-34.93 172.42,-35.18 171.66,-35.39 170.9,-35.59 170.13,-35.74 169.35,-35.85 168.57,-35.95 167.79,-36 167,-36 166.21,-36 165.43,-35.95 164.65,-35.85 163.87,-35.74 163.1,-35.59 162.34,-35.39 161.58,-35.18 160.84,-34.93 160.11,-34.63 159.39,-34.33 158.68,-33.98 158,-33.59 158,-33.59 167,-18 167,-18"/>
<path fill="magenta" stroke="black" stroke-width="0.5" d="M167,-18C167,-18 158,-33.59 158,-33.59 157.32,-33.2 156.67,-32.76 156.04,-32.28 155.42,-31.8 154.83,-31.28 154.27,-30.73 153.72,-30.17 153.2,-29.58 152.72,-28.96 152.24,-28.33 151.8,-27.68 151.41,-27 151.02,-26.32 150.67,-25.61 150.37,-24.89 150.07,-24.16 149.82,-23.42 149.61,-22.66 149.41,-21.9 149.26,-21.13 149.15,-20.35 149.05,-19.57 149,-18.79 149,-18 149,-17.21 149.05,-16.43 149.15,-15.65 149.26,-14.87 149.41,-14.1 149.61,-13.34 149.82,-12.58 150.07,-11.84 150.37,-11.11 150.67,-10.39 151.02,-9.68 151.41,-9 151.8,-8.32 152.24,-7.67 152.72,-7.04 153.2,-6.42 153.72,-5.83 154.27,-5.27 154.83,-4.72 155.42,-4.2 156.04,-3.72 156.67,-3.24 157.32,-2.8 158,-2.41 158,-2.41 167,-18 167,-18"/>
<path fill="yellow" stroke="black" stroke-width="0.5" d="M167,-18C167,-18 158,-2.41 158,-2.41 158.68,-2.02 159.39,-1.67 160.11,-1.37 160.84,-1.07 161.58,-0.82 162.34,-0.61 163.1,-0.41 163.87,-0.26 164.65,-0.15 165.43,-0.05 166.21,0 167,0 167.79,0 168.57,-0.05 169.35,-0.15 170.13,-0.26 170.9,-0.41 171.66,-0.61 172.42,-0.82 173.16,-1.07 173.89,-1.37 174.61,-1.67 175.32,-2.02 176,-2.41 176.68,-2.8 177.33,-3.24 177.96,-3.72 178.58,-4.2 179.17,-4.72 179.73,-5.27 180.28,-5.83 180.8,-6.42 181.28,-7.04 181.76,-7.67 182.2,-8.32 182.59,-9 182.98,-9.68 183.33,-10.39 183.63,-11.11 183.93,-11.84 184.18,-12.58 184.39,-13.34 184.59,-14.1 184.74,-14.87 184.85,-15.65 184.95,-16.43 185,-17.21 185,-18 185,-18 167,-18 167,-18"/>
<ellipse fill="none" stroke="black" cx="167" cy="-18" rx="18" ry="18"/>
</g>
<!-- start&#45;&gt;end -->
<g id="edge1" class="edge">
<title>start&#45;&gt;end</title>
<path fill="none" stroke="black" d="M36.15,-18C61.38,-18 108.74,-18 138.76,-18"/>
<polygon fill="black" stroke="black" points="138.96,-21.5 148.96,-18 138.96,-14.5 138.96,-21.5"/>
<text text-anchor="middle" x="92.5" y="-21.8" font-family="Cantarell" font-size="14.00">invert!</text>
</g>
</g>
</svg>
